<?xml version="1.0" encoding="UTF-8" standalone="no"?><svg xmlns="http://www.w3.org/2000/svg" xmlns:xlink="http://www.w3.org/1999/xlink" contentStyleType="text/css" height="1646px" preserveAspectRatio="none" style="width:1513px;height:1646px;background:#FFFFFF;" version="1.1" viewBox="0 0 1513 1646" width="1513px" zoomAndPan="magnify"><defs/><g><rect fill="none" height="27.6094" id="_title" style="stroke:none;stroke-width:1.0;" width="144" x="674.5" y="5"/><text fill="#000000" font-family="sans-serif" font-size="14" font-weight="bold" lengthAdjust="spacing" textLength="134" x="679.5" y="24.5332">User State Diagram</text><!--MD5=[92442003a9e1860db4ddb80d37f16b13]
cluster Start_App--><g id="cluster_Start_App"><path d="M19.5,119.6094 L173.5,119.6094 A12.5,12.5 0 0 1 186,132.1094 L186,147.2188 L7,147.2188 L7,132.1094 A12.5,12.5 0 0 1 19.5,119.6094 " fill="#F1F1F1" style="stroke:#F1F1F1;stroke-width:1.0;"/><rect fill="none" height="487.72" rx="12.5" ry="12.5" style="stroke:#181818;stroke-width:0.5;" width="179" x="7" y="119.6094"/><line style="stroke:#181818;stroke-width:0.5;" x1="7" x2="186" y1="147.2188" y2="147.2188"/><text fill="#000000" font-family="sans-serif" font-size="14" lengthAdjust="spacing" textLength="63" x="65" y="138.1426">Start_App</text></g><!--MD5=[baf2e43bb81bab4e1522054f3be1db88]
cluster Create_Account--><g id="cluster_Create_Account"><path d="M238.5,529.9694 L680.5,529.9694 A12.5,12.5 0 0 1 693,542.4694 L693,557.5788 L226,557.5788 L226,542.4694 A12.5,12.5 0 0 1 238.5,529.9694 " fill="#F1F1F1" style="stroke:#F1F1F1;stroke-width:1.0;"/><rect fill="none" height="535.36" rx="12.5" ry="12.5" style="stroke:#181818;stroke-width:0.5;" width="467" x="226" y="529.9694"/><line style="stroke:#181818;stroke-width:0.5;" x1="226" x2="693" y1="557.5788" y2="557.5788"/><text fill="#000000" font-family="sans-serif" font-size="14" lengthAdjust="spacing" textLength="102" x="408.5" y="548.5026">Create_Account</text></g><!--MD5=[30da2f0de65b6fb16d3f8b4010dd468d]
cluster Login_Account--><g id="cluster_Login_Account"><path d="M745.5,529.9694 L1174.5,529.9694 A12.5,12.5 0 0 1 1187,542.4694 L1187,557.5788 L733,557.5788 L733,542.4694 A12.5,12.5 0 0 1 745.5,529.9694 " fill="#F1F1F1" style="stroke:#F1F1F1;stroke-width:1.0;"/><rect fill="none" height="535.36" rx="12.5" ry="12.5" style="stroke:#181818;stroke-width:0.5;" width="454" x="733" y="529.9694"/><line style="stroke:#181818;stroke-width:0.5;" x1="733" x2="1187" y1="557.5788" y2="557.5788"/><text fill="#000000" font-family="sans-serif" font-size="14" lengthAdjust="spacing" textLength="94" x="913" y="548.5026">Login_Account</text></g><!--MD5=[ffc7b6d562df701e7507a4ecbd318761]
cluster Main_Page--><g id="cluster_Main_Page"><path d="M220.5,1114.3294 L1487.5,1114.3294 A12.5,12.5 0 0 1 1500,1126.8294 L1500,1141.9388 L208,1141.9388 L208,1126.8294 A12.5,12.5 0 0 1 220.5,1114.3294 " fill="#F1F1F1" style="stroke:#F1F1F1;stroke-width:1.0;"/><rect fill="none" height="525.72" rx="12.5" ry="12.5" style="stroke:#181818;stroke-width:0.5;" width="1292" x="208" y="1114.3294"/><line style="stroke:#181818;stroke-width:0.5;" x1="208" x2="1500" y1="1141.9388" y2="1141.9388"/><text fill="#000000" font-family="sans-serif" font-size="14" lengthAdjust="spacing" textLength="67" x="820.5" y="1132.8626">Main Page</text></g><!--MD5=[88674427161032d7b6c95994233f12c1]
cluster Liste_de_course--><g id="cluster_Liste_de_course"><path d="M547.5,1404.1894 L1129.5,1404.1894 A12.5,12.5 0 0 1 1142,1416.6894 L1142,1431.7988 L535,1431.7988 L535,1416.6894 A12.5,12.5 0 0 1 547.5,1404.1894 " fill="#F1F1F1" style="stroke:#F1F1F1;stroke-width:1.0;"/><rect fill="none" height="195.86" rx="12.5" ry="12.5" style="stroke:#181818;stroke-width:0.5;" width="607" x="535" y="1404.1894"/><line style="stroke:#181818;stroke-width:0.5;" x1="535" x2="1142" y1="1431.7988" y2="1431.7988"/><text fill="#000000" font-family="sans-serif" font-size="14" lengthAdjust="spacing" textLength="54" x="811.5" y="1422.7226">Food list</text></g><!--MD5=[a88a92b9ad7f1df35ef861db036bec5e]
cluster Recipe--><g id="cluster_Recipe"><path d="M1194.5,1404.1894 L1447.5,1404.1894 A12.5,12.5 0 0 1 1460,1416.6894 L1460,1431.7988 L1182,1431.7988 L1182,1416.6894 A12.5,12.5 0 0 1 1194.5,1404.1894 " fill="#F1F1F1" style="stroke:#F1F1F1;stroke-width:1.0;"/><rect fill="none" height="195.86" rx="12.5" ry="12.5" style="stroke:#181818;stroke-width:0.5;" width="278" x="1182" y="1404.1894"/><line style="stroke:#181818;stroke-width:0.5;" x1="1182" x2="1460" y1="1431.7988" y2="1431.7988"/><text fill="#000000" font-family="sans-serif" font-size="14" lengthAdjust="spacing" textLength="51" x="1295.5" y="1422.7226">Recipes</text></g><g id="Start_App.Start_App_Idle"><rect fill="#F1F1F1" height="50" rx="12.5" ry="12.5" style="stroke:#181818;stroke-width:0.5;" width="50" x="78" y="209.3294"/><line style="stroke:#181818;stroke-width:0.5;" x1="78" x2="128" y1="236.9388" y2="236.9388"/><text fill="#000000" font-family="sans-serif" font-size="14" lengthAdjust="spacing" textLength="22" x="92" y="228.8626">Idle</text></g><g id="Start_App.Start_App_Loadlocaldata"><rect fill="#F1F1F1" height="50" rx="12.5" ry="12.5" style="stroke:#181818;stroke-width:0.5;" width="117" x="44.5" y="320.3294"/><line style="stroke:#181818;stroke-width:0.5;" x1="44.5" x2="161.5" y1="347.9388" y2="347.9388"/><text fill="#000000" font-family="sans-serif" font-size="14" lengthAdjust="spacing" textLength="97" x="54.5" y="339.8626">Load local data</text></g><g id="Start_App.Start_App_Configuring"><rect fill="#F1F1F1" height="50" rx="12.5" ry="12.5" style="stroke:#181818;stroke-width:0.5;" width="93" x="50.5" y="533.3294"/><line style="stroke:#181818;stroke-width:0.5;" x1="50.5" x2="143.5" y1="560.9388" y2="560.9388"/><text fill="#000000" font-family="sans-serif" font-size="14" lengthAdjust="spacing" textLength="73" x="60.5" y="552.8626">Configuring</text></g><g id="elem_user_is_register"><polygon fill="#F1F1F1" points="138,431.3294,150,443.3294,138,455.3294,126,443.3294,138,431.3294" style="stroke:#181818;stroke-width:0.5;"/></g><g id="Create_Account.Register_User_Information"><rect fill="#F1F1F1" height="50" rx="12.5" ry="12.5" style="stroke:#181818;stroke-width:0.5;" width="180" x="288" y="662.3294"/><line style="stroke:#181818;stroke-width:0.5;" x1="288" x2="468" y1="689.9388" y2="689.9388"/><text fill="#000000" font-family="sans-serif" font-size="14" lengthAdjust="spacing" textLength="160" x="298" y="681.8626">Register User Information</text></g><g id="Create_Account.Check_user_data_confirmity"><rect fill="#F1F1F1" height="55.2188" rx="12.5" ry="12.5" style="stroke:#181818;stroke-width:0.5;" width="255" x="250.5" y="773.3294"/><line style="stroke:#181818;stroke-width:0.5;" x1="250.5" x2="505.5" y1="800.9388" y2="800.9388"/><text fill="#000000" font-family="sans-serif" font-size="14" lengthAdjust="spacing" textLength="168" x="294" y="792.8626">Check user data confirmity</text><text fill="#000000" font-family="sans-serif" font-size="14" lengthAdjust="spacing" textLength="235" x="255.5" y="820.472">Fetch DataBase and check confirmity</text></g><g id="elem_autority_check_user_register"><polygon fill="#F1F1F1" points="516,889.3294,528,901.3294,516,913.3294,504,901.3294,516,889.3294" style="stroke:#181818;stroke-width:0.5;"/></g><g id="Create_Account.Create_Account_Configuring"><rect fill="#F1F1F1" height="50" rx="12.5" ry="12.5" style="stroke:#181818;stroke-width:0.5;" width="211" x="410.5" y="991.3294"/><line style="stroke:#181818;stroke-width:0.5;" x1="410.5" x2="621.5" y1="1018.9388" y2="1018.9388"/><text fill="#000000" font-family="sans-serif" font-size="14" lengthAdjust="spacing" textLength="191" x="420.5" y="1010.8626">Configuring and update cache</text></g><g id="Login_Account.get_user_credential"><rect fill="#F1F1F1" height="50" rx="12.5" ry="12.5" style="stroke:#181818;stroke-width:0.5;" width="141" x="814.5" y="662.3294"/><line style="stroke:#181818;stroke-width:0.5;" x1="814.5" x2="955.5" y1="689.9388" y2="689.9388"/><text fill="#000000" font-family="sans-serif" font-size="14" lengthAdjust="spacing" textLength="121" x="824.5" y="681.8626">Get user credential</text></g><g id="Login_Account.Login_fetch_db"><rect fill="#F1F1F1" height="55.2188" rx="12.5" ry="12.5" style="stroke:#181818;stroke-width:0.5;" width="255" x="757.5" y="773.3294"/><line style="stroke:#181818;stroke-width:0.5;" x1="757.5" x2="1012.5" y1="800.9388" y2="800.9388"/><text fill="#000000" font-family="sans-serif" font-size="14" lengthAdjust="spacing" textLength="59" x="855.5" y="792.8626">Fetch DB</text><text fill="#000000" font-family="sans-serif" font-size="14" lengthAdjust="spacing" textLength="235" x="762.5" y="820.472">Fetch DataBase and check confirmity</text></g><g id="elem_login_check_confirmity"><polygon fill="#F1F1F1" points="885,889.3294,897,901.3294,885,913.3294,873,901.3294,885,889.3294" style="stroke:#181818;stroke-width:0.5;"/></g><g id="Login_Account.login_update_cache"><rect fill="#F1F1F1" height="50" rx="12.5" ry="12.5" style="stroke:#181818;stroke-width:0.5;" width="211" x="763.5" y="991.3294"/><line style="stroke:#181818;stroke-width:0.5;" x1="763.5" x2="974.5" y1="1018.9388" y2="1018.9388"/><text fill="#000000" font-family="sans-serif" font-size="14" lengthAdjust="spacing" textLength="191" x="773.5" y="1010.8626">Configuring and update cache</text></g><g id="Main_Page.Selection_menu"><rect fill="#F1F1F1" height="55.2188" rx="12.5" ry="12.5" style="stroke:#181818;stroke-width:0.5;" width="117" x="457.5" y="1204.0494"/><line style="stroke:#181818;stroke-width:0.5;" x1="457.5" x2="574.5" y1="1231.6588" y2="1231.6588"/><text fill="#000000" font-family="sans-serif" font-size="14" lengthAdjust="spacing" textLength="97" x="467.5" y="1223.5826">Selection menu</text><text fill="#000000" font-family="sans-serif" font-size="14" lengthAdjust="spacing" textLength="66" x="462.5" y="1251.192">Main page</text></g><g id="elem_main_select_all"><polygon fill="#F1F1F1" points="516,1320.0494,528,1332.0494,516,1344.0494,504,1332.0494,516,1320.0494" style="stroke:#181818;stroke-width:0.5;"/></g><g id="Main_Page.User_profile"><rect fill="#F1F1F1" height="55.2188" rx="12.5" ry="12.5" style="stroke:#181818;stroke-width:0.5;" width="123" x="232.5" y="1405.0494"/><line style="stroke:#181818;stroke-width:0.5;" x1="232.5" x2="355.5" y1="1432.6588" y2="1432.6588"/><text fill="#000000" font-family="sans-serif" font-size="14" lengthAdjust="spacing" textLength="72" x="258" y="1424.5826">User profile</text><text fill="#000000" font-family="sans-serif" font-size="14" lengthAdjust="spacing" textLength="103" x="237.5" y="1452.192">User information</text></g><g id="Main_Page.Favorite_Recipe"><rect fill="#F1F1F1" height="50" rx="12.5" ry="12.5" style="stroke:#181818;stroke-width:0.5;" width="120" x="391" y="1407.5494"/><line style="stroke:#181818;stroke-width:0.5;" x1="391" x2="511" y1="1435.1588" y2="1435.1588"/><text fill="#000000" font-family="sans-serif" font-size="14" lengthAdjust="spacing" textLength="100" x="401" y="1427.0826">Favorite Recipe</text></g><g id="Main_Page.Liste_de_course.Food_update"><rect fill="#F1F1F1" height="55.2188" rx="12.5" ry="12.5" style="stroke:#181818;stroke-width:0.5;" width="300" x="559" y="1521.0494"/><line style="stroke:#181818;stroke-width:0.5;" x1="559" x2="859" y1="1548.6588" y2="1548.6588"/><text fill="#000000" font-family="sans-serif" font-size="14" lengthAdjust="spacing" textLength="45" x="686.5" y="1540.5826">Update</text><text fill="#000000" font-family="sans-serif" font-size="14" lengthAdjust="spacing" textLength="280" x="564" y="1568.192">Update actual value of the item in the basket</text></g><g id="Main_Page.Liste_de_course.Food_add"><rect fill="#F1F1F1" height="55.2188" rx="12.5" ry="12.5" style="stroke:#181818;stroke-width:0.5;" width="223" x="894.5" y="1521.0494"/><line style="stroke:#181818;stroke-width:0.5;" x1="894.5" x2="1117.5" y1="1548.6588" y2="1548.6588"/><text fill="#000000" font-family="sans-serif" font-size="14" lengthAdjust="spacing" textLength="25" x="993.5" y="1540.5826">Add</text><text fill="#000000" font-family="sans-serif" font-size="14" lengthAdjust="spacing" textLength="203" x="899.5" y="1568.192">Add a new product in the basket</text></g><g id="Main_Page.Recipe.Recipe_Filter"><rect fill="#F1F1F1" height="55.2188" rx="12.5" ry="12.5" style="stroke:#181818;stroke-width:0.5;" width="230" x="1206" y="1521.0494"/><line style="stroke:#181818;stroke-width:0.5;" x1="1206" x2="1436" y1="1548.6588" y2="1548.6588"/><text fill="#000000" font-family="sans-serif" font-size="14" lengthAdjust="spacing" textLength="32" x="1305" y="1540.5826">Filter</text><text fill="#000000" font-family="sans-serif" font-size="14" lengthAdjust="spacing" textLength="210" x="1211" y="1568.192">Filter the recipes with parameters</text></g><ellipse cx="103" cy="54.6094" fill="#222222" rx="10" ry="10" style="stroke:none;stroke-width:1.0;"/><!--MD5=[087d306a412cd887a7252160ec07ae47]
link *start to Start_App--><g id="link_*start_Start_App"><path d="M103,64.6994 C103,75.8944 103,95.5469 103,112.8369 C103,114.9981 103,117.1225 103,119.1888 C103,119.3179 103,119.4468 103,119.5755 " fill="none" id="*start-to-Start_App" style="stroke:#181818;stroke-width:1.0;"/><polygon fill="#181818" points="103,119.5755,107,110.5755,103,114.5755,99,110.5755,103,119.5755" style="stroke:#181818;stroke-width:1.0;"/></g><!--MD5=[dd7089bb14f0d42499092f1b0d04e5aa]
link Start_App to Start_App_Idle--><g id="link_Start_App_Start_App_Idle"><path d="M103,148.3894 C103,149.9294 103,180.0094 103,203.9394 " fill="none" id="Start_App-to-Start_App_Idle" style="stroke:#181818;stroke-width:1.0;"/><polygon fill="#181818" points="103,208.9394,107,199.9394,103,203.9394,99,199.9394,103,208.9394" style="stroke:#181818;stroke-width:1.0;"/></g><!--MD5=[d003ff14695ece007a41379cc1654b00]
link Start_App_Idle to Start_App_Loadlocaldata--><g id="link_Start_App_Idle_Start_App_Loadlocaldata"><path d="M103,259.5194 C103,275.8894 103,297.6094 103,314.9694 " fill="none" id="Start_App_Idle-to-Start_App_Loadlocaldata" style="stroke:#181818;stroke-width:1.0;"/><polygon fill="#181818" points="103,320.2094,107,311.2094,103,315.2094,99,311.2094,103,320.2094" style="stroke:#181818;stroke-width:1.0;"/></g><!--MD5=[a4ce66710bc2ac6ae7d7cf44a6c7ac5f]
link Start_App_Loadlocaldata to user_is_register--><g id="link_Start_App_Loadlocaldata_user_is_register"><path d="M111.83,370.5494 C118.61,389.1594 127.72,414.1294 133.21,429.1794 " fill="none" id="Start_App_Loadlocaldata-to-user_is_register" style="stroke:#181818;stroke-width:1.0;"/><polygon fill="#181818" points="135.05,434.2494,135.7239,424.4236,133.3367,429.5521,128.2082,427.1649,135.05,434.2494" style="stroke:#181818;stroke-width:1.0;"/></g><!--MD5=[59cc93bde2f80e61340ba73798fbc468]
link user_is_register to Start_App_Configuring--><g id="link_user_is_register_Start_App_Configuring"><path d="M129.59,447.2394 C116.02,452.4394 89.75,464.7694 79,485.3294 C72.03,498.6494 75.16,514.7894 80.62,528.3994 " fill="none" id="user_is_register-to-Start_App_Configuring" style="stroke:#181818;stroke-width:1.0;"/><polygon fill="#181818" points="82.72,533.2894,82.8513,523.4414,80.7504,528.6936,75.4981,526.5927,82.72,533.2894" style="stroke:#181818;stroke-width:1.0;"/><text fill="#000000" font-family="sans-serif" font-size="13" lengthAdjust="spacing" textLength="94" x="80" y="499.8245">User is in cache</text></g><!--MD5=[7c7e82b30d1b5fe988f25c6093d68018]
link user_is_register to Create_Account--><g id="link_user_is_register_Create_Account"><path d="M143.81,449.6694 C151.99,457.2894 167.2,471.8494 179,485.3294 C191.845,500.0094 205.15,517.3619 215.4562,531.3531 C218.0328,534.8509 220.422,538.1387 222.5696,541.1221 C223.6435,542.6137 224.6569,544.0293 225.6033,545.3571 C225.7216,545.523 225.8388,545.6876 225.955,545.8508 " fill="none" id="user_is_register-to-Create_Account" style="stroke:#181818;stroke-width:1.0;"/><polygon fill="#181818" points="225.955,545.8508,223.9939,536.1992,223.0552,541.7776,217.4768,540.8389,225.955,545.8508" style="stroke:#181818;stroke-width:1.0;"/><text fill="#000000" font-family="sans-serif" font-size="13" lengthAdjust="spacing" textLength="79" x="195" y="499.8245">Register User</text></g><!--MD5=[2590601e5d47bcb14397f0fde4f65077]
link user_is_register to Login_Account--><g id="link_user_is_register_Login_Account"><path d="M148.79,444.6594 C217.92,446.9294 599.15,461.6694 701,513.9694 C712.295,519.7694 722.0325,530.1244 729.0713,539.2606 C729.9511,540.4027 730.7888,541.5256 731.582,542.6183 C731.9787,543.1646 732.3642,543.7034 732.7384,544.2332 C732.7852,544.2994 732.8318,544.3655 732.8782,544.4314 " fill="none" id="user_is_register-to-Login_Account" style="stroke:#181818;stroke-width:1.0;"/><polygon fill="#181818" points="732.8782,544.4314,730.9686,534.7694,730.0001,540.3428,724.4268,539.3743,732.8782,544.4314" style="stroke:#181818;stroke-width:1.0;"/><text fill="#000000" font-family="sans-serif" font-size="13" lengthAdjust="spacing" textLength="62" x="668" y="499.8245">Login User</text></g><!--MD5=[21d2933dc4643545192d61656c7e48ab]
link Start_App_Configuring to Main_Page--><g id="link_Start_App_Configuring_Main_Page"><path d="M110.92,583.7594 C123.81,608.7194 141,648.9894 141,686.3294 C141,686.3294 141,686.3294 141,1017.3294 C141,1060.8844 233.29,1091.8319 326.3013,1111.9606 C329.2079,1112.5896 332.1152,1113.2081 335.0204,1113.8161 C335.7467,1113.968 336.4729,1114.1194 337.1988,1114.27 " fill="none" id="Start_App_Configuring-to-Main_Page" style="stroke:#181818;stroke-width:1.0;"/><polygon fill="#181818" points="337.1988,1114.27,329.1995,1108.5246,332.3032,1113.254,327.5738,1116.3577,337.1988,1114.27" style="stroke:#181818;stroke-width:1.0;"/></g><!--MD5=[1d208fd0c9761b7dcb44bdd57aad091c]
link Create_Account to Register_User_Information--><g id="link_Create_Account_Register_User_Information"><path d="M234.1,559.4194 C237.13,562.0894 305.34,622.2494 346.75,658.7694 " fill="none" id="Create_Account-to-Register_User_Information" style="stroke:#181818;stroke-width:1.0;"/><polygon fill="#181818" points="350.67,662.2194,346.5476,653.2748,346.9133,658.9198,341.2683,659.2854,350.67,662.2194" style="stroke:#181818;stroke-width:1.0;"/></g><!--MD5=[67c78abc54a65128c4bbc0f2d52b7a7f]
link Register_User_Information to Check_user_data_confirmity--><g id="link_Register_User_Information_Check_user_data_confirmity"><path d="M378,712.5194 C378,728.6594 378,750.0594 378,767.6294 " fill="none" id="Register_User_Information-to-Check_user_data_confirmity" style="stroke:#181818;stroke-width:1.0;"/><polygon fill="#181818" points="378,772.9494,382,763.9494,378,767.9494,374,763.9494,378,772.9494" style="stroke:#181818;stroke-width:1.0;"/></g><!--MD5=[78266881e7297ee089bb54251b2d460e]
link Check_user_data_confirmity to autority_check_user_register--><g id="link_Check_user_data_confirmity_autority_check_user_register"><path d="M415.34,828.4894 C445.37,849.9194 485.6,878.6294 504.84,892.3594 " fill="none" id="Check_user_data_confirmity-to-autority_check_user_register" style="stroke:#181818;stroke-width:1.0;"/><polygon fill="#181818" points="509.26,895.5194,504.2698,887.0283,505.1942,892.6091,499.6134,893.5336,509.26,895.5194" style="stroke:#181818;stroke-width:1.0;"/></g><!--MD5=[89247daea6f0eec8b32cc8bb2b59ded7]
link autority_check_user_register to Register_User_Information--><g id="link_autority_check_user_register_Register_User_Information"><path d="M519.28,892.2094 C527.3,870.9794 545.61,812.7994 523,773.3294 C507.85,746.8794 480.92,727.8694 454.35,714.6194 " fill="none" id="autority_check_user_register-to-Register_User_Information" style="stroke:#181818;stroke-width:1.0;"/><polygon fill="#181818" points="449.74,712.3794,456.088,719.9095,454.2375,714.5639,459.5832,712.7135,449.74,712.3794" style="stroke:#181818;stroke-width:1.0;"/><text fill="#000000" font-family="sans-serif" font-size="13" lengthAdjust="spacing" textLength="91" x="534" y="806.3245">Data non invalid</text></g><!--MD5=[5a7da52f0b41369832ef54c15c1e5da1]
link autority_check_user_register to Create_Account_Configuring--><g id="link_autority_check_user_register_Create_Account_Configuring"><path d="M516,913.5794 C516,930.2894 516,962.2394 516,985.8994 " fill="none" id="autority_check_user_register-to-Create_Account_Configuring" style="stroke:#181818;stroke-width:1.0;"/><polygon fill="#181818" points="516,991.1194,520,982.1194,516,986.1194,512,982.1194,516,991.1194" style="stroke:#181818;stroke-width:1.0;"/><text fill="#000000" font-family="sans-serif" font-size="13" lengthAdjust="spacing" textLength="60" x="517" y="957.8245">Valid Data</text></g><!--MD5=[722adc2b22c065cdc930c1b159c7ad2b]
link Create_Account_Configuring to Main_Page--><g id="link_Create_Account_Configuring_Main_Page"><path d="M516,1041.5994 C516,1059.4144 516,1083.9394 516,1104.2531 C516,1106.7923 516,1109.2658 516,1111.652 C516,1112.2486 516,1112.8397 516,1113.4251 C516,1113.7178 516,1114.009 516,1114.2987 " fill="none" id="Create_Account_Configuring-to-Main_Page" style="stroke:#181818;stroke-width:1.0;"/><polygon fill="#181818" points="516,1114.2987,520,1105.2987,516,1109.2987,512,1105.2987,516,1114.2987" style="stroke:#181818;stroke-width:1.0;"/></g><!--MD5=[e98a942a85c72b3902a564e119086ef9]
link Login_Account to get_user_credential--><g id="link_Login_Account_get_user_credential"><path d="M741.1,559.4194 C744.13,562.0894 812.34,622.2494 853.75,658.7694 " fill="none" id="Login_Account-to-get_user_credential" style="stroke:#181818;stroke-width:1.0;"/><polygon fill="#181818" points="857.67,662.2194,853.5476,653.2748,853.9133,658.9198,848.2683,659.2854,857.67,662.2194" style="stroke:#181818;stroke-width:1.0;"/></g><!--MD5=[6bd410d959c98993b261ecb23c9899d8]
link get_user_credential to Login_fetch_db--><g id="link_get_user_credential_Login_fetch_db"><path d="M885,712.5194 C885,728.6594 885,750.0594 885,767.6294 " fill="none" id="get_user_credential-to-Login_fetch_db" style="stroke:#181818;stroke-width:1.0;"/><polygon fill="#181818" points="885,772.9494,889,763.9494,885,767.9494,881,763.9494,885,772.9494" style="stroke:#181818;stroke-width:1.0;"/></g><!--MD5=[61be82d2d304f2cacf90f0c5f603b229]
link Login_fetch_db to login_check_confirmity--><g id="link_Login_fetch_db_login_check_confirmity"><path d="M885,828.4894 C885,846.2494 885,869.0094 885,884.0994 " fill="none" id="Login_fetch_db-to-login_check_confirmity" style="stroke:#181818;stroke-width:1.0;"/><polygon fill="#181818" points="885,889.2894,889,880.2894,885,884.2894,881,880.2894,885,889.2894" style="stroke:#181818;stroke-width:1.0;"/></g><!--MD5=[30f1141fce74efd7dd4c9e5278c85c9d]
link login_check_confirmity to get_user_credential--><g id="link_login_check_confirmity_get_user_credential"><path d="M894.74,898.9894 C921.99,894.6494 999.05,878.2594 1030,828.3294 C1042.88,807.5494 1042.15,794.5394 1030,773.3294 C1014.64,746.5194 987.19,727.3494 960.27,714.0794 " fill="none" id="login_check_confirmity-to-get_user_credential" style="stroke:#181818;stroke-width:1.0;"/><polygon fill="#181818" points="955.6,711.8394,961.9673,719.3532,960.1031,714.0123,965.444,712.1482,955.6,711.8394" style="stroke:#181818;stroke-width:1.0;"/><text fill="#000000" font-family="sans-serif" font-size="13" lengthAdjust="spacing" textLength="78" x="1040" y="806.3245">login not valid</text></g><!--MD5=[c34f2b37b2222cd9d6fc7ef2e9dedeef]
link login_check_confirmity to login_update_cache--><g id="link_login_check_confirmity_login_update_cache"><path d="M883.58,912.3594 C881.27,928.6994 876.6,961.6694 873.16,985.9194 " fill="none" id="login_check_confirmity-to-login_update_cache" style="stroke:#181818;stroke-width:1.0;"/><polygon fill="#181818" points="872.45,990.9494,877.6691,982.5971,873.1491,985.9985,869.7477,981.4785,872.45,990.9494" style="stroke:#181818;stroke-width:1.0;"/><text fill="#000000" font-family="sans-serif" font-size="13" lengthAdjust="spacing" textLength="56" x="879" y="957.8245">login valid</text></g><!--MD5=[5ebce6ba858eae563cf2c252b04927b4]
link login_update_cache to Main_Page--><g id="link_login_update_cache_Main_Page"><path d="M800.52,1041.4594 C749.995,1059.2544 680.28,1083.8119 622.505,1104.1644 C615.2831,1106.7084 608.2478,1109.1868 601.4599,1111.578 C599.7629,1112.1758 598.0813,1112.7682 596.4162,1113.3548 C595.5837,1113.6481 594.7552,1113.9399 593.931,1114.2303 " fill="none" id="login_update_cache-to-Main_Page" style="stroke:#181818;stroke-width:1.0;"/><polygon fill="#181818" points="593.931,1114.2303,603.7487,1115.0127,598.6469,1112.569,601.0906,1107.4672,593.931,1114.2303" style="stroke:#181818;stroke-width:1.0;"/></g><!--MD5=[63e1bc25160330b3e9c8d0c057d84795]
link Liste_de_course to Food_add--><g id="link_Liste_de_course_Food_add"><path d="M709.05,1433.5694 C712.12,1434.7494 845.11,1485.7894 932.06,1519.1694 " fill="none" id="Liste_de_course-to-Food_add" style="stroke:#181818;stroke-width:1.0;"/><polygon fill="#181818" points="936.94,1521.0394,929.9873,1514.0637,932.2762,1519.2368,927.1032,1521.5258,936.94,1521.0394" style="stroke:#181818;stroke-width:1.0;"/></g><!--MD5=[8b079d02ca5d41b20157f59ed2ff1627]
link Liste_de_course to Food_update--><g id="link_Liste_de_course_Food_update"><path d="M709,1433.6294 C709,1435.8694 709,1482.8994 709,1515.8294 " fill="none" id="Liste_de_course-to-Food_update" style="stroke:#181818;stroke-width:1.0;"/><polygon fill="#181818" points="709,1520.9794,713,1511.9794,709,1515.9794,705,1511.9794,709,1520.9794" style="stroke:#181818;stroke-width:1.0;"/></g><!--MD5=[ccdf8f61f9f3812b948e710473b008c8]
link Recipe to Recipe_Filter--><g id="link_Recipe_Recipe_Filter"><path d="M1190.09,1433.6294 C1192.7,1435.8994 1248.5,1484.4594 1286.4,1517.4394 " fill="none" id="Recipe-to-Recipe_Filter" style="stroke:#181818;stroke-width:1.0;"/><polygon fill="#181818" points="1290.47,1520.9794,1286.2924,1512.0604,1286.693,1517.7031,1281.0503,1518.1037,1290.47,1520.9794" style="stroke:#181818;stroke-width:1.0;"/></g><!--MD5=[657518104ac49fcc7d4498c8ececb03e]
link Main_Page to Selection_menu--><g id="link_Main_Page_Selection_menu"><path d="M516,1143.1094 C516,1144.6594 516,1174.1694 516,1198.4894 " fill="none" id="Main_Page-to-Selection_menu" style="stroke:#181818;stroke-width:1.0;"/><polygon fill="#181818" points="516,1203.5794,520,1194.5794,516,1198.5794,512,1194.5794,516,1203.5794" style="stroke:#181818;stroke-width:1.0;"/></g><!--MD5=[3fecc0cfcac03bafb7d42d5b15a14e8a]
link Selection_menu to main_select_all--><g id="link_Selection_menu_main_select_all"><path d="M516,1259.2094 C516,1276.9694 516,1299.7294 516,1314.8194 " fill="none" id="Selection_menu-to-main_select_all" style="stroke:#181818;stroke-width:1.0;"/><polygon fill="#181818" points="516,1320.0094,520,1311.0094,516,1315.0094,512,1311.0094,516,1320.0094" style="stroke:#181818;stroke-width:1.0;"/></g><!--MD5=[11bef520c8e35a92098522829153a696]
link main_select_all to User_profile--><g id="link_main_select_all_User_profile"><path d="M507.45,1335.8994 C485.01,1343.4594 422.71,1365.0894 373,1388.1894 C363.61,1392.5494 353.8,1397.5594 344.41,1402.5794 " fill="none" id="main_select_all-to-User_profile" style="stroke:#181818;stroke-width:1.0;"/><polygon fill="#181818" points="339.83,1405.0394,349.6504,1404.2906,344.2314,1402.6672,345.8548,1397.2483,339.83,1405.0394" style="stroke:#181818;stroke-width:1.0;"/></g><!--MD5=[c9a503d5bf61cbddf7e1f5072168f034]
link main_select_all to Liste_de_course--><g id="link_main_select_all_Liste_de_course"><path d="M527.69,1332.3894 C561.41,1331.1794 659.34,1332.8094 705,1388.1894 C707.9825,1391.8069 709.755,1396.2156 710.7286,1400.8202 C710.8503,1401.3957 710.9595,1401.9743 711.057,1402.5549 C711.1058,1402.8451 711.1517,1403.1359 711.1947,1403.4269 C711.2162,1403.5725 711.237,1403.7181 711.2571,1403.8638 C711.2672,1403.9366 711.2771,1404.0094 711.2868,1404.0823 " fill="none" id="main_select_all-to-Liste_de_course" style="stroke:#181818;stroke-width:1.0;"/><polygon fill="#181818" points="711.2868,1404.0823,714.0625,1394.6327,710.6261,1399.1262,706.1326,1395.6898,711.2868,1404.0823" style="stroke:#181818;stroke-width:1.0;"/></g><!--MD5=[254b899102542a7a184b5950009b8434]
link main_select_all to Recipe--><g id="link_main_select_all_Recipe"><path d="M527.15,1332.9394 C602.19,1332.3294 1034.2,1331.3594 1150,1388.1894 C1161.4,1393.7844 1171.14,1404.1319 1178.1538,1413.3156 C1179.0305,1414.4636 1179.8646,1415.5934 1180.654,1416.6934 C1181.0488,1417.2434 1181.4323,1417.786 1181.8044,1418.3197 C1181.8509,1418.3865 1181.8973,1418.453 1181.9434,1418.5195 " fill="none" id="main_select_all-to-Recipe" style="stroke:#181818;stroke-width:1.0;"/><polygon fill="#181818" points="1181.9434,1418.5195,1180.0931,1408.846,1179.0905,1414.4133,1173.5232,1413.4107,1181.9434,1418.5195" style="stroke:#181818;stroke-width:1.0;"/></g><!--MD5=[1d4a2365b02b5ed2bab0bcd8b9e5b81d]
link main_select_all to Favorite_Recipe--><g id="link_main_select_all_Favorite_Recipe"><path d="M511.53,1339.8194 C503.09,1352.6194 484.34,1381.0194 469.94,1402.8594 " fill="none" id="main_select_all-to-Favorite_Recipe" style="stroke:#181818;stroke-width:1.0;"/><polygon fill="#181818" points="467.12,1407.1294,475.4196,1401.8268,469.877,1402.9582,468.7456,1397.4156,467.12,1407.1294" style="stroke:#181818;stroke-width:1.0;"/></g><!--MD5=[85a46e335e2164ecb467c3a2196778d8]
@startuml
title User State Diagram

[*] - -> Start_App

state Start_App {
  state "Idle" as Start_App_Idle
  state "Load local data" as Start_App_Loadlocaldata
  state "Configuring" as Start_App_Configuring
  state user_is_register <<choice>>

  Start_App - -> Start_App_Idle
  Start_App_Idle - -> Start_App_Loadlocaldata
  Start_App_Loadlocaldata - -> user_is_register
  user_is_register - -> Start_App_Configuring : User is in cache
  user_is_register - -> Create_Account : Register User
  user_is_register - -> Login_Account : Login User
  Start_App_Configuring - -> Main_Page

}

state Create_Account {
  state "Register User Information" as Register_User_Information
  state "Check user data confirmity" as Check_user_data_confirmity : Fetch DataBase and check confirmity
  state autority_check_user_register <<choice>>
  state "Configuring and update cache" as Create_Account_Configuring

  Create_Account - -> Register_User_Information
  Register_User_Information - -> Check_user_data_confirmity
  Check_user_data_confirmity - -> autority_check_user_register
  autority_check_user_register - -> Register_User_Information : Data non invalid
  autority_check_user_register - -> Create_Account_Configuring : Valid Data
  Create_Account_Configuring - -> Main_Page
}

state Login_Account {
  state "Get user credential" as get_user_credential
  state "Fetch DB" as Login_fetch_db : Fetch DataBase and check confirmity
  state login_check_confirmity <<choice>>
  state "Configuring and update cache" as login_update_cache

  Login_Account - -> get_user_credential
  get_user_credential - -> Login_fetch_db
  Login_fetch_db - -> login_check_confirmity
  login_check_confirmity - -> get_user_credential : login not valid
  login_check_confirmity - -> login_update_cache : login valid
  login_update_cache - -> Main_Page
}

state "Main Page" as Main_Page {
  state "Selection menu" as Selection_menu : Main page
  state "Selection" as main_select_all <<choice>>

  state "User profile" as User_profile : User information
  state "Food list" as Liste_de_course {
    state "Update" as Food_update : Update actual value of the item in the basket
    state "Add" as Food_add : Add a new product in the basket

    Liste_de_course - -> Food_add
    Liste_de_course - -> Food_update
  }
  state "Recipes" as Recipe {
    state "Filter" as Recipe_Filter : Filter the recipes with parameters

    Recipe - -> Recipe_Filter
  }
  state "Favorite Recipe" as Favorite_Recipe


  Main_Page - -> Selection_menu
  Selection_menu - -> main_select_all
  main_select_all - -> User_profile
  main_select_all - -> Liste_de_course
  main_select_all - -> Recipe

  main_select_all - -> Favorite_Recipe



}



@enduml

PlantUML version 1.2022.7(Mon Aug 22 22:31:30 IST 2022)
(GPL source distribution)
Java Runtime: Java(TM) SE Runtime Environment
JVM: Java HotSpot(TM) 64-Bit Server VM
Default Encoding: UTF-8
Language: fr
Country: FR
--></g></svg>